HIERARCHY
ROOT Hips
{
	OFFSET 0.000000 0.000000 0.000000
	CHANNELS 6 Xposition Yposition Zposition Zrotation Yrotation Xrotation 
	JOINT LHipJoint
	{
		OFFSET 0.000000 0.000000 0.000000
		CHANNELS 3 Zrotation Yrotation Xrotation
		JOINT LeftUpLeg
		{
			OFFSET 8.178360 -10.767780 5.035740
			CHANNELS 3 Zrotation Yrotation Xrotation
			JOINT LeftLeg
			{
				OFFSET 14.688660 -40.356780 0.000000
				CHANNELS 3 Zrotation Yrotation Xrotation
				JOINT LeftFoot
				{
					OFFSET 15.373200 -42.237540 0.000000
					CHANNELS 3 Zrotation Yrotation Xrotation
					JOINT LeftToeBase
					{
						OFFSET 0.945840 -2.598660 13.935300
						CHANNELS 3 Zrotation Yrotation Xrotation
						End Site
						{
							OFFSET 0.000000 0.000000 0.000000
						}
					}
				}
			}
		}
	}
	JOINT RHipJoint
	{
		OFFSET 0.000000 0.000000 0.000000
		CHANNELS 3 Zrotation Yrotation Xrotation
		JOINT RightUpLeg
		{
			OFFSET -7.833120 -10.767780 5.035740
			CHANNELS 3 Zrotation Yrotation Xrotation
			JOINT RightLeg
			{
				OFFSET -15.255180 -41.913300 0.000000
				CHANNELS 3 Zrotation Yrotation Xrotation
				JOINT RightFoot
				{
					OFFSET -15.409560 -42.337380 0.000000
					CHANNELS 3 Zrotation Yrotation Xrotation
					JOINT RightToeBase
					{
						OFFSET -0.988380 -2.715540 14.178900
						CHANNELS 3 Zrotation Yrotation Xrotation
						End Site
						{
							OFFSET 0.000000 0.000000 0.000000
						}
					}
				}
			}
		}
	}
	JOINT LowerBack
	{
		OFFSET 0.000000 0.000000 0.000000
		CHANNELS 3 Zrotation Yrotation Xrotation
		JOINT Spine
		{
			OFFSET 0.169620 12.213540 -1.160280
			CHANNELS 3 Zrotation Yrotation Xrotation
			JOINT Spine1
			{
				OFFSET 0.340320 12.293100 -0.256500
				CHANNELS 3 Zrotation Yrotation Xrotation
				JOINT Neck
				{
					OFFSET 0.000000 0.000000 0.000000
					CHANNELS 3 Zrotation Yrotation Xrotation
					JOINT Neck1
					{
						OFFSET -0.325020 10.477440 1.032120
						CHANNELS 3 Zrotation Yrotation Xrotation
						JOINT Head
						{
							OFFSET 0.624420 10.568160 -0.743820
							CHANNELS 3 Zrotation Yrotation Xrotation
							End Site
							{
								OFFSET 0.000000 0.000000 0.000000
							}
						}
					}
				}
				JOINT LeftShoulder
				{
					OFFSET 0.000000 0.000000 0.000000
					CHANNELS 3 Zrotation Yrotation Xrotation
					JOINT LeftArm
					{
						OFFSET 20.174460 7.205340 -1.867260
						CHANNELS 3 Zrotation Yrotation Xrotation
						JOINT LeftForeArm
						{
							OFFSET 29.898000 -0.000000 -0.000000
							CHANNELS 3 Zrotation Yrotation Xrotation
							JOINT LeftHand
							{
								OFFSET 20.901360 -0.000000 -0.000000
								CHANNELS 3 Zrotation Yrotation Xrotation
								JOINT LeftFingerBase
								{
									OFFSET 0.000000 0.000000 0.000000
									CHANNELS 3 Zrotation Yrotation Xrotation
									JOINT LeftHandIndex1
									{
										OFFSET 4.291560 -0.000000 -0.000000
										CHANNELS 3 Zrotation Yrotation Xrotation
										End Site
										{
											OFFSET 0.000000 0.000000 0.000000
										}
									}
								}
								JOINT LThumb
								{
									OFFSET 0.000000 0.000000 0.000000
									CHANNELS 3 Zrotation Yrotation Xrotation
									End Site
									{
										OFFSET 0.000000 0.000000 0.000000
									}
								}
							}
						}
					}
				}
				JOINT RightShoulder
				{
					OFFSET 0.000000 0.000000 0.000000
					CHANNELS 3 Zrotation Yrotation Xrotation
					JOINT RightArm
					{
						OFFSET -18.819600 8.244300 -2.427900
						CHANNELS 3 Zrotation Yrotation Xrotation
						JOINT RightForeArm
						{
							OFFSET -31.451400 -0.000000 -0.000000
							CHANNELS 3 Zrotation Yrotation Xrotation
							JOINT RightHand
							{
								OFFSET -20.665020 -0.000000 -0.000000
								CHANNELS 3 Zrotation Yrotation Xrotation
								JOINT RightFingerBase
								{
									OFFSET 0.000000 0.000000 0.000000
									CHANNELS 3 Zrotation Yrotation Xrotation
									JOINT RightHandIndex1
									{
										OFFSET -3.735180 -0.000000 -0.000000
										CHANNELS 3 Zrotation Yrotation Xrotation
										End Site
										{
											OFFSET 0.000000 0.000000 0.000000
										}
									}
								}
								JOINT RThumb
								{
									OFFSET 0.000000 0.000000 0.000000
									CHANNELS 3 Zrotation Yrotation Xrotation
									End Site
									{
										OFFSET 0.000000 0.000000 0.000000
									}
								}
							}
						}
					}
				}
			}
		}
	}
}
MOTION
Frames:	8
Frame Time:	0.0333333
3.678306 107.730930 -25.100052 6.296377 44.540497 5.295330 -3.343695 1.573445 2.734464 -15.014174 -7.339773 -5.918311 -1.114730 4.325994 13.799832 1.361280 -12.867363 5.448618 0.105800 -2.097600 -5.775500 0.815547 -1.217271 0.951974 2.923609 5.258427 -12.227807 -4.932429 -13.719669 42.048938 -0.163777 -1.092098 -2.824430 -0.112000 2.157600 -5.941500 0.749994 1.883228 9.162091 1.405697 2.672369 0.828980 -0.447466 1.336085 -5.025938 -9.748721 1.819019 -15.127089 0.705063 5.518838 26.960130 3.250000 0.712000 16.235700 -6.052973 -1.920980 -1.489773 -81.966160 -1.201806 32.068161 18.408929 -25.802413 -5.275929 -1.341723 -1.917638 4.876891 21.641549 16.972826 7.802200 -7.125000 0.000000 0.000000 -5.399800 50.381300 -0.718000 5.260653 0.979846 -1.345195 80.950121 -3.372038 6.104631 -17.724635 26.099207 -4.380870 0.487278 -0.257391 7.707818 -19.341287 10.225666 -3.728200 7.125000 0.000000 0.000000 5.082000 -18.968400 3.166600 
4.277004 107.669496 -26.385984 5.413090 44.753782 4.428066 -3.352725 1.414998 2.577049 -15.063149 -7.455677 -7.316467 -0.800966 5.321757 16.570065 1.423184 -13.472968 4.605922 0.071900 -1.730000 -4.760000 0.851899 -1.110443 0.910246 7.194789 3.095010 -14.021317 -6.024019 -14.661242 46.330673 -1.228496 4.337872 -4.365056 -0.474000 4.415600 -12.249100 0.445247 1.945333 9.554914 1.562308 2.730577 1.020791 0.072417 1.364612 -4.860391 -9.947060 1.616966 -15.074564 0.914225 5.289822 27.230827 3.359900 0.606300 16.367600 -6.027448 -1.921618 -1.465298 -81.425687 -1.531895 31.041390 18.437722 -25.865951 -5.284536 -1.357484 -1.910998 5.029534 21.805045 17.101189 7.916900 -7.125000 0.000000 0.000000 -5.261100 50.542100 -0.720300 5.258255 1.002369 -1.346864 81.563291 -3.561181 7.217767 -18.580122 27.199827 -4.807934 0.469419 -0.244691 9.338368 -19.276181 9.870909 -3.578600 7.125000 0.000000 0.000000 5.133600 -19.373100 3.152600 
4.879914 107.401470 -27.610482 5.265187 45.163983 4.284555 -3.357490 1.250265 2.383087 -15.598216 -7.708265 -8.769191 -0.459313 6.230512 19.153371 1.457633 -14.445663 4.115992 0.031000 -1.136500 -3.124500 0.893777 -1.040030 0.916699 11.181708 -0.195928 -15.602936 -6.710718 -15.115315 48.700421 -2.045819 8.937006 -6.118131 -1.089300 6.632900 -18.632300 0.069206 1.904611 9.727824 1.486600 2.626789 1.078639 0.168284 1.322202 -4.801110 -10.199164 1.476640 -14.852492 1.359316 5.078537 27.264328 3.595400 0.545200 16.319200 -6.037047 -1.879968 -1.455039 -80.867690 -1.551465 29.054357 18.335468 -25.768702 -5.205819 -1.407233 -1.951281 4.964527 22.305553 17.812852 8.427000 -7.125000 0.000000 0.000000 -4.917500 51.427800 -0.780100 5.219334 1.042367 -1.346086 82.243675 -3.977010 8.534621 -19.366775 28.181324 -5.211590 0.477385 -0.223064 8.494250 -19.441499 9.852435 -3.599000 7.125000 0.000000 0.000000 5.014000 -19.397800 3.075800 
5.440062 107.046708 -28.709094 5.025695 45.513633 4.037132 -3.308299 1.089013 2.201191 -15.880531 -7.384725 -10.509847 -0.016589 7.207076 21.978734 1.501856 -16.493042 3.897558 0.001300 0.236600 0.650100 0.976187 -0.997206 0.960779 15.234048 -3.184870 -15.909255 -6.595310 -14.874900 48.085788 -2.462697 11.833980 -6.674262 -1.983500 8.831600 -25.269900 -0.068303 1.986758 9.748205 1.402879 2.712480 1.169204 0.078393 1.375233 -4.613077 -10.096324 1.421911 -14.453421 1.569946 4.874472 27.173445 3.645400 0.522600 16.152400 -6.046930 -1.852829 -1.432487 -80.263486 -1.663558 27.195533 18.183678 -25.606323 -5.108876 -1.446619 -1.897096 5.100038 22.726079 17.352102 8.400000 -7.125000 0.000000 0.000000 -4.323300 50.966300 -0.636500 5.201713 1.063854 -1.336095 82.796350 -4.214402 9.412092 -19.686828 28.569978 -5.376148 0.504165 -0.220568 7.650617 -20.155674 10.058926 -3.819800 7.125000 0.000000 0.000000 4.492800 -19.126500 2.781200 
6.061044 106.610634 -29.801682 5.538442 45.517524 4.367483 -3.214141 0.924215 2.048700 -16.677041 -6.081947 -12.392810 0.398139 7.977650 24.308357 1.363489 -19.843710 5.360542 0.088200 1.915200 5.271300 1.076824 -0.956067 1.026717 17.866953 -4.354354 -14.575442 -5.754086 -14.020172 44.985489 -2.359839 13.579454 -2.833594 -0.065900 1.656500 -4.557300 -0.000071 2.244990 9.537333 1.031648 3.055339 1.298446 -0.726704 1.559900 -4.197173 -10.260278 1.153856 -14.278575 2.084128 4.429290 27.225774 3.884000 0.389700 16.135000 -6.089326 -1.797215 -1.416457 -79.479911 -1.985967 27.088858 18.109222 -25.567231 -5.042910 -1.758843 -2.209341 3.315948 26.856902 21.482847 12.320600 -7.125000 0.000000 0.000000 -0.813700 56.537400 -0.230200 5.157065 1.123917 -1.299751 83.479728 -3.981680 9.796576 -19.472272 28.323422 -5.271944 0.512194 -0.234091 7.435412 -20.364944 10.385601 -3.991000 7.125000 0.000000 0.000000 4.345100 -18.749000 2.725700 
6.626610 106.396818 -31.048464 6.879921 45.200734 5.216055 -3.126220 0.780320 1.966237 -17.970900 -3.850296 -14.259894 0.669284 8.421437 25.741890 0.920193 -23.764896 8.565851 0.195600 2.848100 7.856200 1.230074 -0.961080 1.087526 18.249410 -3.240493 -12.163560 -4.651789 -13.016338 40.857312 -0.797471 1.037106 -8.779713 -0.001800 -0.272700 0.749200 0.158666 2.476654 9.810022 0.558732 3.370743 1.377947 -1.847556 1.753868 -4.104229 -10.344068 1.118124 -14.257619 1.831210 4.455736 27.438864 3.822400 0.336500 16.239300 -6.158563 -1.792807 -1.397321 -78.803871 -2.107605 25.482219 17.822418 -25.188832 -4.883424 -1.586585 -1.998099 4.895247 24.156433 19.078426 9.809000 -7.125000 0.000000 0.000000 -3.213400 53.187600 -0.647700 5.115832 1.137822 -1.285464 83.732954 -3.646226 10.478158 -19.137824 27.919081 -5.105171 0.524442 -0.239966 7.059877 -20.614965 10.409548 -4.057400 7.125000 0.000000 0.000000 4.160600 -18.695000 2.614400 
7.180734 106.382964 -32.527134 7.748969 44.734815 5.480202 -2.940950 0.646623 1.849117 -18.801641 -1.475381 -16.553452 0.992225 9.067452 27.890397 0.299967 -26.490409 15.522140 0.468100 4.388400 12.172000 1.303955 -0.963508 1.174219 17.219109 -2.097853 -9.682994 -3.808578 -12.059471 37.362642 -0.275882 -1.934376 -10.772937 -0.220600 3.023700 -8.344700 1.080503 2.595178 10.489486 0.280731 3.656004 1.631437 -3.071295 1.934239 -3.870492 -10.792194 1.239067 -14.576535 1.265701 4.913350 27.413432 3.742200 0.364400 16.259100 -6.244430 -1.829002 -1.371943 -79.044920 -2.860146 24.214504 17.467997 -24.662394 -4.654802 -1.699891 -2.071446 4.160667 25.383977 19.910042 10.801400 -7.125000 0.000000 0.000000 -2.027900 54.397000 -0.468400 5.101149 1.158626 -1.259876 83.239468 -3.005323 11.389807 -18.831280 27.557459 -4.957081 0.525786 -0.237808 7.222449 -20.576501 10.134838 -3.944600 7.125000 0.000000 0.000000 4.180100 -18.993500 2.599000 
7.705950 106.432350 -34.097358 7.284406 44.908087 5.032822 -2.656800 0.493848 1.652618 -18.215573 0.914358 -20.028456 1.431317 10.074828 31.095323 0.571936 -25.133366 24.787649 0.335000 3.719400 10.288600 1.303563 -0.952948 1.277635 16.431250 -1.317330 -8.180908 -3.283778 -11.312367 34.873374 -0.670358 -0.258618 -10.962566 -0.086300 1.895100 -5.215900 2.996266 2.409046 11.299973 0.292667 3.686467 1.696013 -4.293643 1.974395 -4.022328 -11.103064 1.320483 -14.570660 0.342717 5.240741 26.849694 3.429700 0.352000 15.947600 -6.308273 -1.832803 -1.376646 -79.704709 -2.711857 23.072616 17.091658 -24.110181 -4.426625 -1.747414 -2.129219 3.894368 25.667439 20.441034 11.219200 -7.125000 0.000000 0.000000 -1.827900 55.086000 -0.452800 5.091749 1.146968 -1.260352 82.253971 -2.981892 12.400294 -18.704011 27.433542 -4.907197 0.504147 -0.235240 6.761306 -19.809162 10.247228 -3.827200 7.125000 0.000000 0.000000 4.742900 -18.928100 2.958000 
